<svg xmlns="http://www.w3.org/2000/svg" xmlns:xlink="http://www.w3.org/1999/xlink" width="4096" zoomAndPan="magnify"
     viewBox="0 0 3072 3071.999987" height="4096" preserveAspectRatio="xMidYMid meet" version="1.0">
    <defs>
        <clipPath id="de8487a422">
            <path d="M 1951 625 L 2888.441406 625 L 2888.441406 2428 L 1951 2428 Z M 1951 625 " clip-rule="nonzero"/>
        </clipPath>
    </defs>
    <rect x="-307.2" width="3686.4" fill="#ffffff" y="-307.199999" height="3686.399984" fill-opacity="1"/>
    <rect x="-307.2" width="3686.4" fill="#480c0c" y="-307.199999" height="3686.399984" fill-opacity="1"/>
    <path fill="#decaca"
          d="M 548.09375 647.636719 L 547.765625 647.65625 L 521.957031 677.09375 C 504.617188 698.542969 487.011719 723.632812 469.144531 752.359375 C 451.273438 781.085938 433.148438 813.453125 414.757812 849.460938 C 377.976562 921.472656 340.144531 1008.046875 301.273438 1109.179688 C 244.59375 1267.707031 212.816406 1370.734375 205.9375 1418.253906 C 190.675781 1488.761719 183.542969 1549.742188 184.535156 1601.195312 C 191.828125 1716.605469 224.425781 1846.535156 282.324219 1990.984375 C 297.941406 2029.066406 314.746094 2065.128906 332.738281 2099.171875 C 378.226562 2178.488281 411.960938 2230.199219 433.941406 2254.308594 C 447.664062 2337.578125 456.679688 2384.203125 460.980469 2394.183594 C 461.851562 2395.886719 462.378906 2395.351562 462.558594 2392.574219 C 462.140625 2395.699219 467.558594 2406.304688 478.8125 2424.390625 L 490.117188 2435.875 C 501.820312 2445.195312 516.1875 2449.859375 533.230469 2449.871094 C 898.730469 2339.917969 1097.609375 2187.550781 1129.863281 1992.761719 C 1127.75 1949.234375 1112.015625 1912.429688 1082.652344 1882.351562 L 710.847656 1579.917969 C 637.042969 1509.953125 587.136719 1443.5 561.125 1380.554688 C 532.609375 1313.585938 516.246094 1214.859375 512.035156 1084.378906 C 514.375 983.855469 528.09375 845.84375 553.191406 670.34375 C 553.601562 652 551.902344 644.433594 548.09375 647.636719 "
          fill-opacity="0.996" fill-rule="nonzero"/>
    <g clip-path="url(#de8487a422)">
        <path fill="#decaca"
              d="M 2503.847656 626.128906 L 2504.175781 626.136719 L 2530.628906 655 C 2548.433594 676.066406 2566.585938 700.761719 2585.085938 729.085938 C 2603.578125 757.414062 2622.414062 789.375 2641.589844 824.96875 C 2679.949219 896.15625 2719.671875 981.875 2760.761719 1082.128906 C 2820.914062 1239.375 2854.949219 1341.675781 2862.867188 1389.035156 C 2879.675781 1459.191406 2888.152344 1520 2888.292969 1571.460938 C 2883.539062 1687 2853.804688 1817.617188 2799.097656 1963.308594 C 2784.324219 2001.71875 2768.316406 2038.144531 2751.074219 2072.578125 C 2707.34375 2152.871094 2674.753906 2205.3125 2653.308594 2229.898438 C 2641.417969 2313.449219 2633.433594 2360.261719 2629.351562 2370.335938 C 2628.519531 2372.058594 2627.980469 2371.535156 2627.738281 2368.761719 C 2628.226562 2371.878906 2623.042969 2382.597656 2612.1875 2400.925781 L 2601.140625 2412.660156 C 2589.644531 2422.234375 2575.382812 2427.214844 2558.34375 2427.597656 C 2190.515625 2325.710938 1988.335938 2177.753906 1951.804688 1983.722656 C 1952.957031 1940.15625 1967.882812 1903.015625 1996.574219 1872.300781 L 2361.636719 1561.761719 C 2433.886719 1490.191406 2482.320312 1422.65625 2506.9375 1359.15625 C 2533.972656 1291.574219 2548.160156 1192.511719 2549.503906 1061.96875 C 2544.957031 961.523438 2528.203125 823.84375 2499.25 648.941406 C 2498.441406 630.609375 2499.972656 623.007812 2503.847656 626.128906 "
              fill-opacity="0.996" fill-rule="nonzero"/>
    </g>
</svg>